<svg width="76" height="23" viewBox="0 0 76 23" fill="none" xmlns="http://www.w3.org/2000/svg">
<g opacity="0.4" clip-path="url(#clip0_26_49)">
<path d="M7.93817 4.14382C8.29412 4.14382 8.5827 3.85524 8.5827 3.49929V2.20142C8.5827 1.84546 8.29412 1.55688 7.93817 1.55688C7.58222 1.55688 7.29364 1.84546 7.29364 2.20142V3.49929C7.29364 3.85524 7.58222 4.14382 7.93817 4.14382Z" fill="#F1F1F1"/>
<path d="M2.09091 6.5045L0.966887 5.85554C0.658586 5.67747 0.26439 5.78318 0.0864564 6.09144C-0.0915203 6.39974 0.014097 6.79393 0.322355 6.97187L1.44638 7.62083C1.75395 7.79846 2.14844 7.69392 2.32681 7.38493C2.50478 7.07663 2.39916 6.68243 2.09091 6.5045V6.5045Z" fill="#F1F1F1"/>
<path d="M1.44637 13.6314L0.32235 14.2804C-0.246556 14.6088 -0.0129782 15.4832 0.645217 15.4832C0.937276 15.4832 1.01105 15.342 2.09086 14.7478C2.39912 14.5698 2.50473 14.1756 2.32676 13.8673C2.14882 13.5591 1.75471 13.4533 1.44637 13.6314V13.6314Z" fill="#F1F1F1"/>
<path d="M14.4299 7.62082L15.5539 6.97186C15.8622 6.79389 15.9678 6.39974 15.7898 6.09144C15.6119 5.78318 15.2177 5.67748 14.9094 5.85554L13.7854 6.50449C13.4771 6.68247 13.3715 7.07662 13.5495 7.38492C13.7283 7.69472 14.1231 7.79802 14.4299 7.62082Z" fill="#F1F1F1"/>
<path d="M6.63545 12.2591C7.11382 9.63728 9.2253 7.62906 11.8611 7.28321C10.9147 6.17349 9.50726 5.46851 7.93813 5.46851C5.09497 5.46851 2.78192 7.78243 2.78192 10.6266C2.78192 11.985 3.30979 13.2222 4.17084 14.1443C4.76695 13.2692 5.63702 12.6014 6.63545 12.2591V12.2591Z" fill="#F1F1F1"/>
<path d="M17.1405 11.5418C16.4106 9.73757 14.6417 8.52026 12.6587 8.52026C9.9997 8.52026 7.85337 10.6637 7.82527 13.3068C5.99458 13.5077 4.60205 15.078 4.60205 16.9203C4.60205 18.9249 6.23233 20.5558 8.23618 20.5558C18.3773 20.5452 17.8224 20.5817 17.999 20.5269C20.2518 20.2727 22 18.3614 22 16.0425C22 13.3944 19.7381 11.3383 17.1405 11.5418V11.5418Z" fill="#F1F1F1"/>
</g>
<path d="M65.9992 10.7116C65.9666 10.6573 65.9206 10.6124 65.8655 10.5812C65.8104 10.5499 65.7482 10.5335 65.6849 10.5334H64.3151C64.2518 10.5335 64.1896 10.5498 64.1345 10.581C64.0795 10.6122 64.0334 10.657 64.0008 10.7113L63.3408 11.8113C63.3066 11.8683 63.2886 11.9335 63.2886 11.9999C63.2886 12.0664 63.3066 12.1316 63.3408 12.1886L64.0008 13.2886C64.0334 13.3429 64.0794 13.3878 64.1345 13.4191C64.1895 13.4503 64.2518 13.4667 64.3151 13.4668H65.6849C65.7482 13.4668 65.8104 13.4504 65.8655 13.4192C65.9205 13.3881 65.9666 13.3432 65.9992 13.289L66.6592 12.1889C66.6934 12.132 66.7114 12.0668 66.7114 12.0003C66.7114 11.9338 66.6934 11.8686 66.6592 11.8116L65.9992 10.7116Z" fill="#2194FF"/>
<path d="M73.9038 16.2937L72.4371 15.4478L73.6167 15.0144C73.7936 14.9537 73.942 14.8301 74.0338 14.6671C74.1255 14.5041 74.1541 14.3131 74.1143 14.1304C74.0889 14.0309 74.0429 13.9379 73.9794 13.8574C73.9158 13.7768 73.836 13.7104 73.7452 13.6627C73.6543 13.6149 73.5545 13.5867 73.4521 13.5799C73.3497 13.5731 73.247 13.5879 73.1507 13.6233L70.7849 14.4934L68.9274 13.4205L69.5467 12.373C69.6134 12.26 69.6486 12.1312 69.6486 12.0001C69.6486 11.8689 69.6134 11.7401 69.5467 11.6272L68.9278 10.5796L70.7849 9.50674L73.1507 10.3768C73.2516 10.4141 73.3596 10.4286 73.4669 10.4194C73.5741 10.4102 73.678 10.3775 73.7712 10.3237C73.8644 10.2698 73.9446 10.1961 74.0061 10.1078C74.0676 10.0194 74.1089 9.91863 74.1271 9.81254C74.1521 9.63799 74.1155 9.46018 74.0235 9.30973C73.9316 9.15928 73.79 9.0456 73.6233 8.98827L72.4382 8.5534L73.9049 7.70603C74.0684 7.61634 74.1933 7.46962 74.2556 7.29381C74.318 7.118 74.3135 6.9254 74.243 6.7527C74.2011 6.65887 74.14 6.57488 74.0636 6.50618C73.9872 6.43748 73.8972 6.3856 73.7995 6.3539C73.7018 6.3222 73.5985 6.31138 73.4963 6.32216C73.3941 6.33294 73.2953 6.36507 73.2064 6.41647L71.7031 7.28363L71.9168 6.04723C71.9515 5.87161 71.9234 5.68937 71.8374 5.53235C71.7515 5.37532 71.6131 5.25349 71.4464 5.18813C71.3458 5.15252 71.2386 5.13931 71.1323 5.14942C71.026 5.15953 70.9233 5.19272 70.8311 5.24667C70.739 5.30061 70.6598 5.37402 70.599 5.46176C70.5382 5.54949 70.4973 5.64945 70.4791 5.75463L70.0498 8.23843L68.1798 9.31827L67.5949 8.32827C67.5304 8.2185 67.4383 8.12743 67.3279 8.06404C67.2174 8.00064 67.0923 7.96711 66.965 7.96673H65.7334V5.74363L67.64 4.15523C67.7796 4.04385 67.8756 3.88692 67.9112 3.71191C67.9468 3.53689 67.9197 3.35493 67.8347 3.19787C67.7811 3.10561 67.708 3.02616 67.6205 2.96507C67.533 2.90399 67.4332 2.86274 67.3281 2.8442C67.223 2.82566 67.1151 2.83028 67.012 2.85773C66.9089 2.88519 66.813 2.93482 66.7311 3.00317L65.7334 3.8344V2.1393C65.7373 1.96079 65.6784 1.78657 65.5668 1.64714C65.4553 1.50771 65.2982 1.41196 65.1232 1.37663C65.018 1.3587 64.9101 1.36396 64.8071 1.39206C64.704 1.42015 64.6084 1.4704 64.5268 1.5393C64.4453 1.6082 64.3797 1.69407 64.3348 1.79093C64.2899 1.88779 64.2666 1.99329 64.2667 2.10007V3.8344L63.2994 3.02773C63.1648 2.91057 62.9932 2.8445 62.8148 2.84108C62.6363 2.83767 62.4624 2.89712 62.3234 3.00903C62.2422 3.07843 62.1772 3.16472 62.1328 3.26186C62.0885 3.35901 62.0659 3.46467 62.0666 3.57146C62.0673 3.67825 62.0914 3.78359 62.137 3.88011C62.1827 3.97664 62.2489 4.06203 62.3311 4.1303L64.2671 5.74363V7.96673H63.0351C62.9076 7.96674 62.7823 7.99999 62.6715 8.0632C62.5608 8.1264 62.4685 8.21739 62.4037 8.32717L61.8188 9.31717L59.9488 8.23734L59.5268 5.79497C59.4989 5.61017 59.404 5.44205 59.2603 5.32255C59.1166 5.20305 58.9341 5.14047 58.7473 5.1467C58.6448 5.15367 58.5449 5.18208 58.4541 5.2301C58.3633 5.27812 58.2836 5.34468 58.2202 5.42546C58.1568 5.50625 58.111 5.59945 58.0859 5.69905C58.0608 5.79864 58.0569 5.9024 58.0744 6.0036L58.2944 7.28253L56.8278 6.4348C56.6752 6.34203 56.4949 6.30589 56.3184 6.3327C56.1419 6.35952 55.9804 6.44758 55.8623 6.58147C55.7942 6.66363 55.7448 6.75968 55.7176 6.86291C55.6905 6.96614 55.6862 7.07405 55.705 7.17912C55.7239 7.28418 55.7654 7.38386 55.8268 7.4712C55.8882 7.55854 55.9679 7.63142 56.0603 7.68477L57.5637 8.55194L56.3779 8.9879C56.211 9.04523 56.0693 9.15894 55.9772 9.30945C55.8851 9.45996 55.8484 9.63786 55.8733 9.81254C55.8915 9.91863 55.9328 10.0194 55.9943 10.1078C56.0558 10.1961 56.136 10.2698 56.2292 10.3237C56.3224 10.3775 56.4263 10.4102 56.5336 10.4194C56.6408 10.4286 56.7488 10.4141 56.8498 10.3768L59.2151 9.50674L61.0727 10.5796L60.4534 11.6272C60.3867 11.7401 60.3515 11.8689 60.3515 12.0001C60.3515 12.1312 60.3867 12.26 60.4534 12.373L61.0723 13.4205L59.2151 14.4934L56.8498 13.6233C56.7534 13.5878 56.6507 13.573 56.5483 13.5797C56.4459 13.5864 56.346 13.6146 56.2551 13.6623C56.1642 13.7101 56.0844 13.7764 56.0208 13.857C55.9572 13.9375 55.9112 14.0306 55.8858 14.13C55.8459 14.3128 55.8745 14.5039 55.9663 14.6669C56.058 14.83 56.2064 14.9537 56.3834 15.0144L57.5618 15.4467L56.0985 16.2901C55.9324 16.381 55.806 16.5303 55.7439 16.7091C55.6817 16.8879 55.6881 17.0834 55.7619 17.2577C55.8049 17.3498 55.8666 17.432 55.943 17.499C56.0195 17.566 56.109 17.6163 56.2059 17.6469C56.3029 17.6774 56.4051 17.6875 56.5062 17.6764C56.6072 17.6653 56.7049 17.6334 56.7929 17.5826L58.2963 16.7154L58.0818 17.9569C58.0597 18.0643 58.0615 18.1753 58.0871 18.2819C58.1126 18.3885 58.1612 18.4882 58.2294 18.5741C58.2977 18.6599 58.3839 18.7296 58.4821 18.7785C58.5802 18.8273 58.6879 18.854 58.7975 18.8567C58.9702 18.8565 59.1372 18.7953 59.2693 18.684C59.4013 18.5726 59.4897 18.4182 59.5191 18.2481L59.9485 15.7643L61.8185 14.6844L62.4033 15.6744C62.4683 15.784 62.5608 15.8747 62.6716 15.9377C62.7824 16.0006 62.9076 16.0336 63.0351 16.0334H64.2667V18.2565L62.36 19.8467C62.2205 19.958 62.1246 20.1149 62.0891 20.2898C62.0536 20.4647 62.0809 20.6465 62.1661 20.8034C62.2197 20.8956 62.2928 20.9751 62.3803 21.0362C62.4678 21.0972 62.5676 21.1385 62.6727 21.157C62.7778 21.1756 62.8856 21.171 62.9888 21.1435C63.0919 21.116 63.1878 21.0664 63.2697 20.9981L64.2667 20.1657V21.8608C64.2627 22.0393 64.3217 22.2136 64.4332 22.353C64.5448 22.4924 64.7018 22.5882 64.8768 22.6235C64.9821 22.6414 65.09 22.6362 65.193 22.6081C65.296 22.58 65.3916 22.5297 65.4732 22.4608C65.5548 22.3919 65.6203 22.3061 65.6653 22.2092C65.7102 22.1123 65.7334 22.0068 65.7334 21.9001V20.1657L66.7307 20.997C66.8144 21.0668 66.9126 21.1171 67.0181 21.1442C67.1237 21.1713 67.234 21.1746 67.3409 21.1537C67.4479 21.1329 67.5489 21.0884 67.6365 21.0236C67.7242 20.9588 67.7962 20.8753 67.8476 20.7792C67.9255 20.6242 67.9477 20.4472 67.9106 20.2777C67.8735 20.1083 67.7793 19.9568 67.6437 19.8486L65.7334 18.2565V16.0334H66.965C67.0925 16.0334 67.2178 16.0001 67.3285 15.9369C67.4392 15.8737 67.5316 15.7827 67.5964 15.673L68.1812 14.683L70.0512 15.7628L70.4806 18.2466C70.5099 18.4168 70.5984 18.5711 70.7304 18.6825C70.8624 18.7938 71.0295 18.855 71.2022 18.8553C71.312 18.8519 71.4198 18.8245 71.518 18.7751C71.6162 18.7257 71.7024 18.6555 71.7705 18.5693C71.8387 18.4831 71.8872 18.383 71.9127 18.2761C71.9381 18.1692 71.9399 18.058 71.9179 17.9503L71.7045 16.7176L73.2079 17.5848C73.2959 17.6357 73.3935 17.6677 73.4946 17.6788C73.5957 17.6899 73.698 17.6799 73.795 17.6494C73.8919 17.6189 73.9815 17.5686 74.058 17.5016C74.1345 17.4346 74.1962 17.3524 74.2393 17.2603C74.3131 17.0862 74.3196 16.891 74.2576 16.7124C74.1957 16.5338 74.0695 16.3846 73.9038 16.2937V16.2937ZM67.288 12.5658L66.628 13.6658C66.53 13.8284 66.3917 13.963 66.2265 14.0566C66.0613 14.1501 65.8748 14.1996 65.685 14.2001H64.3151C64.1252 14.1996 63.9387 14.1501 63.7735 14.0566C63.6084 13.963 63.4701 13.8284 63.372 13.6658L62.712 12.5658C62.6091 12.3951 62.5547 12.1995 62.5547 12.0001C62.5547 11.8007 62.6091 11.6051 62.712 11.4343L63.372 10.3343C63.4701 10.1717 63.6084 10.0372 63.7735 9.94358C63.9387 9.85001 64.1252 9.80058 64.3151 9.80007H65.685C65.8748 9.80058 66.0613 9.85001 66.2265 9.94358C66.3917 10.0372 66.53 10.1717 66.628 10.3343L67.288 11.4343C67.391 11.6051 67.4453 11.8007 67.4453 12.0001C67.4453 12.1995 67.391 12.3951 67.288 12.5658V12.5658Z" fill="#2194FF"/>
<g clip-path="url(#clip1_26_49)">
<path d="M30.9617 11.877C31.0272 11.8664 31.0934 11.8615 31.1597 11.8623L42.4474 11.8623L42.2013 11.7478C41.9607 11.634 41.7418 11.479 41.5544 11.2899L38.3891 8.12456C37.9722 7.72661 37.9022 7.08642 38.2231 6.60772C38.5966 6.0976 39.3129 5.98685 39.8231 6.36037C39.8643 6.39056 39.9035 6.42348 39.9403 6.45889L45.6642 12.1829C46.1116 12.6297 46.112 13.3545 45.6651 13.8018C45.6649 13.8021 45.6645 13.8024 45.6642 13.8027L39.9403 19.5267C39.4926 19.9731 38.7678 19.9721 38.3213 19.5244C38.2862 19.4892 38.2534 19.4517 38.2231 19.4122C37.9022 18.9335 37.9722 18.2933 38.3891 17.8954L41.5487 14.7243C41.7167 14.5561 41.9098 14.4152 42.1211 14.3064L42.4646 14.1519L31.2227 14.1519C30.6379 14.1736 30.1248 13.7651 30.0149 13.1903C29.9137 12.5662 30.3376 11.9782 30.9617 11.877Z" fill="#2194FF"/>
</g>
<defs>
<clipPath id="clip0_26_49">
<rect width="22" height="22.0079" fill="white" transform="translate(0 0.0534668)"/>
</clipPath>
<clipPath id="clip1_26_49">
<rect width="16" height="16" fill="white" transform="matrix(-1 8.74228e-08 8.74228e-08 1 46 5)"/>
</clipPath>
</defs>
</svg>
