<svg width="77" height="25" viewBox="0 0 77 25" fill="none" xmlns="http://www.w3.org/2000/svg">
<g clip-path="url(#clip0_26_33)">
<path d="M64.5 6.23828C61.0473 6.23828 58.2384 9.04774 58.2384 12.5005C58.2384 15.9532 61.0473 18.7626 64.5 18.7626C67.9522 18.7626 70.7617 15.9537 70.7617 12.5005C70.7617 9.04718 67.9522 6.23828 64.5 6.23828Z" fill="#2194FF"/>
<path d="M64.5 4.3977C63.8252 4.3977 63.2783 3.85075 63.2783 3.17648V1.22177C63.2783 0.546944 63.8252 0 64.5 0C65.1748 0 65.7218 0.546944 65.7218 1.22177V3.17648C65.7218 3.85075 65.1743 4.3977 64.5 4.3977Z" fill="#2194FF"/>
<path d="M64.5 20.6018C63.8252 20.6018 63.2783 21.1488 63.2783 21.8236V23.7777C63.2783 24.4531 63.8252 25.0001 64.5 25.0001C65.1748 25.0001 65.7218 24.4531 65.7218 23.7777V21.8236C65.7218 21.1488 65.1743 20.6018 64.5 20.6018Z" fill="#2194FF"/>
<path d="M70.2285 6.771C69.7519 6.29381 69.7519 5.52044 70.2285 5.04325L71.6108 3.66095C72.0875 3.18431 72.8614 3.18431 73.3386 3.66095C73.8158 4.13814 73.8158 4.91205 73.3386 5.38869L71.9563 6.771C71.4796 7.24819 70.7063 7.24819 70.2285 6.771Z" fill="#2194FF"/>
<path d="M58.7709 18.2296C58.2937 17.7519 57.5203 17.7519 57.0432 18.2296L55.6608 19.6114C55.1842 20.088 55.1837 20.8625 55.6608 21.3391C56.138 21.8158 56.912 21.8158 57.3886 21.3391L58.7709 19.9563C59.2481 19.4796 59.2481 18.7057 58.7709 18.2296Z" fill="#2194FF"/>
<path d="M72.6017 12.5001C72.6017 11.8253 73.1487 11.2783 73.8235 11.2783H75.7782C76.4531 11.2783 77 11.8253 77 12.5001C77 13.1749 76.4531 13.7213 75.7782 13.7213H73.8235C73.1487 13.7213 72.6017 13.1749 72.6017 12.5001Z" fill="#2194FF"/>
<path d="M56.3977 12.5001C56.3977 11.8253 55.8508 11.2783 55.1759 11.2783H53.2218C52.5469 11.2783 52 11.8253 52 12.5001C52 13.1749 52.5469 13.7213 53.2218 13.7213H55.1765C55.8508 13.7213 56.3977 13.1749 56.3977 12.5001Z" fill="#2194FF"/>
<path d="M70.2285 18.2295C70.7057 17.7529 71.4796 17.7529 71.9562 18.2295L73.3386 19.6119C73.8157 20.0879 73.8157 20.8624 73.3386 21.339C72.8614 21.8157 72.088 21.8157 71.6108 21.339L70.2285 19.9567C69.7513 19.4795 69.7513 18.7062 70.2285 18.2295Z" fill="#2194FF"/>
<path d="M58.7709 6.77086C59.2481 6.29367 59.2481 5.52031 58.7709 5.04311L57.3886 3.66136C56.9114 3.18417 56.1381 3.18417 55.6609 3.66136C55.1837 4.138 55.1837 4.91192 55.6609 5.38855L57.0432 6.77086C57.5204 7.24861 58.2937 7.24861 58.7709 6.77086Z" fill="#2194FF"/>
</g>
<g opacity="0.4" clip-path="url(#clip1_26_33)">
<path d="M19.5133 14.4491C19.3087 14.3979 19.1041 14.4491 18.9251 14.577C18.2602 15.1398 17.4929 15.6004 16.649 15.9074C15.8562 16.2144 14.9866 16.3679 14.066 16.3679C11.9944 16.3679 10.1019 15.5236 8.74647 14.1677C7.39102 12.8117 6.54706 10.9186 6.54706 8.84628C6.54706 7.97644 6.70051 7.13218 6.95626 6.36467C7.23757 5.546 7.64677 4.80407 8.18383 4.16448C8.414 3.88306 8.36285 3.47373 8.08153 3.24347C7.90251 3.11555 7.69791 3.06439 7.49332 3.11555C5.31949 3.70398 3.42698 5.00874 2.07153 6.74843C0.767234 8.46253 0 10.586 0 12.8885C0 15.6771 1.12528 18.2099 2.96664 20.0519C4.808 21.8939 7.3143 23.0196 10.1275 23.0196C12.4803 23.0196 14.6542 22.2009 16.3932 20.845C18.1579 19.4635 19.4366 17.4935 19.9737 15.2422C20.076 14.884 19.8714 14.5258 19.5133 14.4491Z" fill="#F1F1F1"/>
</g>
<g clip-path="url(#clip2_26_33)">
<path d="M28.9617 10.877C29.0272 10.8664 29.0934 10.8614 29.1597 10.8623L40.4474 10.8623L40.2013 10.7478C39.9607 10.634 39.7418 10.479 39.5544 10.2899L36.3891 7.12456C35.9722 6.72661 35.9022 6.08642 36.2231 5.60771C36.5966 5.0976 37.3129 4.98684 37.8231 5.36037C37.8643 5.39056 37.9035 5.42348 37.9403 5.45889L43.6642 11.1829C44.1116 11.6297 44.112 12.3545 43.6651 12.8018C43.6649 12.8021 43.6645 12.8024 43.6642 12.8027L37.9403 18.5267C37.4926 18.9731 36.7678 18.9721 36.3213 18.5244C36.2862 18.4892 36.2534 18.4517 36.2231 18.4122C35.9022 17.9335 35.9722 17.2933 36.3891 16.8954L39.5487 13.7243C39.7167 13.5561 39.9098 13.4152 40.1211 13.3064L40.4646 13.1519L29.2227 13.1519C28.6379 13.1736 28.1248 12.7651 28.0149 12.1903C27.9137 11.5662 28.3376 10.9782 28.9617 10.877Z" fill="#2194FF"/>
</g>
<defs>
<clipPath id="clip0_26_33">
<rect width="25" height="25" fill="white" transform="translate(52)"/>
</clipPath>
<clipPath id="clip1_26_33">
<rect width="20" height="20.0071" fill="white" transform="translate(0 3.0542)"/>
</clipPath>
<clipPath id="clip2_26_33">
<rect width="16" height="16" fill="white" transform="matrix(-1 -8.74228e-08 -8.74228e-08 1 44 4)"/>
</clipPath>
</defs>
</svg>
