<svg width="14" height="16" viewBox="0 0 14 16" fill="none" xmlns="http://www.w3.org/2000/svg">
<path d="M8.12302 0.96169C8.13365 1.02716 8.13855 1.09341 8.13769 1.1597V12.4474L8.25217 12.2013C8.36604 11.9607 8.52102 11.7418 8.71009 11.5544L11.8754 8.3891C12.2734 7.97221 12.9136 7.90217 13.3923 8.2231C13.9024 8.59663 14.0132 9.31294 13.6396 9.82309C13.6094 9.8643 13.5765 9.90348 13.5411 9.94029L7.81715 15.6642C7.37032 16.1116 6.64549 16.112 6.19816 15.6651C6.19788 15.6649 6.19756 15.6645 6.19727 15.6642L0.473311 9.94029C0.0268784 9.4926 0.0278797 8.76777 0.475565 8.3213C0.510803 8.28617 0.548295 8.25337 0.58779 8.2231C1.06649 7.90217 1.70668 7.97221 2.10464 8.3891L5.27571 11.5487C5.44385 11.7167 5.58484 11.9098 5.69356 12.1211L5.84811 12.4646V1.2227C5.82639 0.637893 6.2349 0.124811 6.80973 0.014947C7.43382 -0.0862597 8.02178 0.3376 8.12302 0.96169Z" fill="#2194FF"/>
</svg>
